HIERARCHY
ROOT pelvis
{
  OFFSET 0 100 0
  CHANNELS 6 Xposition Yposition Zposition Zrotation Xrotation Yrotation
  JOINT pelvis_right_femur
  {
    OFFSET -10.78128 -3.44521 -0.5502486
    CHANNELS 3 Zrotation Xrotation Yrotation
    JOINT right_femur_tibia
    {
      OFFSET -0.8047443 -44.0398 -0.1307829
      CHANNELS 3 Zrotation Xrotation Yrotation
      JOINT right_tibia_foot
      {
        OFFSET 3.006224 -47.83518 -5
        CHANNELS 3 Zrotation Xrotation Yrotation
        End Site
        {
          OFFSET 0 -5 15
        }
      }
    }
  }
  JOINT pelvis_left_femur
  {
    OFFSET 10.78128 -3.44521 -0.5502486
    CHANNELS 3 Zrotation Xrotation Yrotation
    JOINT left_femur_tibia
    {
      OFFSET 0.8047443 -44.0398 -0.1307829
      CHANNELS 3 Zrotation Xrotation Yrotation
      JOINT left_tibia_foot
      {
        OFFSET -4.370144 -48.10324 -4.275266
        CHANNELS 3 Zrotation Xrotation Yrotation
        End Site
        {
          OFFSET 0 -5 15
        }
      }
    }
  }
  JOINT pelvis_spine1
  {
    OFFSET 0 6.468898 -3.129235
    CHANNELS 3 Zrotation Xrotation Yrotation
    JOINT spine1
    {
      OFFSET 0 23.15396 4.99043
      CHANNELS 3 Zrotation Xrotation Yrotation
      JOINT spine2
      {
        OFFSET 0 20.79997 -5.064912
        CHANNELS 3 Zrotation Xrotation Yrotation
        JOINT neck
        {
          OFFSET 0 14.38658 9.616178
          CHANNELS 3 Zrotation Xrotation Yrotation
          End Site
          {
            OFFSET 0 20 0
          }
        }
      }
      JOINT right_manubrium
      {
        OFFSET -5.722621 16.35077 3.967754
        CHANNELS 3 Zrotation Xrotation Yrotation
        JOINT right_clavicle
        {
          OFFSET -13.16364 1.694482 -4.693211
          CHANNELS 3 Zrotation Xrotation Yrotation
          JOINT right_humerus
          {
            OFFSET -28.5034 -0.3100689 -2.792744
            CHANNELS 3 Zrotation Xrotation Yrotation
            JOINT right_radius
            {
              OFFSET -25.15693 0.02248979 -1.271978
              CHANNELS 3 Zrotation Xrotation Yrotation
              End Site
              {
                OFFSET -15 0 0
              }
            }
          }
        }
      }
      JOINT left_manubrium
      {
        OFFSET 5.722621 16.35077 3.967754
        CHANNELS 3 Zrotation Xrotation Yrotation
        JOINT left_clavicle
        {
          OFFSET 13.16364 1.694482 -4.693211
          CHANNELS 3 Zrotation Xrotation Yrotation
          JOINT left_humerus
          {
            OFFSET 29.39168 -1.063119 -2.237045
            CHANNELS 3 Zrotation Xrotation Yrotation
            JOINT left_radius
            {
              OFFSET 24.59957 -0.9528479 0.9047498
              CHANNELS 3 Zrotation Xrotation Yrotation
              End Site
              {
                OFFSET 15 -0 -0
              }
            }
          }
        }
      }
    }
  }
}
MOTION
Frames: 17
Frame Time: 0.0416666666667
-973.2975 99.81111 2567.714 -6.578089 -3.170899 -70.62458 0.379754 21.71345 -0.0004466251 -0 25.3527 -0 -9.643178 -6.89631 0.06989397 -1.803446 -17.75884 -9.168619 -0 12.42211 -0 -2.851575 -5.647505 20.09927 0.6613269 -2.6071 8.443665 0.2788608 16.34146 -5.3151 0.4037251 18.88412 2.183033 0.7242869 -17.6646 3.289096 0.3796851 -31.86507 13.81808 85.84869 18.49043 -6.863281 -0 0 31.80726 -21.87766 15.55469 15.11412 1.669915 -21.62027 -8.249911 -94.88155 8.55973 40.23928 0 0 -5.276744 7.631576 13.36678 4.984873
-979.5322 100.2948 2571.253 -6.461871 -4.232023 -70.62737 -1.416129 21.6718 0.1410039 -0 32.40751 -0 -10.11423 0.9292653 1.306008 -3.973962 -15.99703 -11.08136 -0 15.61369 -0 -3.341984 -7.556324 20.72641 0.6618725 -2.60142 8.445751 0.2780797 16.33171 -5.315983 0.4050871 18.88193 2.176335 0.7116475 -17.67013 3.292473 0.3586725 -31.87403 13.81123 85.87173 18.51015 -6.858896 -0 0 31.80548 -21.85979 15.53679 15.11586 1.655174 -21.60724 -8.242987 -94.86188 8.559904 40.24987 0 0 -5.312681 7.611235 13.35889 5.013643
-985.6121 101.2925 2574.586 -6.520252 -4.947554 -70.14251 -2.285503 18.86701 0.1198454 -0 41.35497 -0 -11.37158 9.181256 2.436431 -5.450043 -12.98656 -12.14447 -0 18.1028 -0 -2.965405 -9.162419 21.0198 0.6624163 -2.59549 8.447992 0.2770178 16.32142 -5.31648 0.4072497 18.87831 2.167642 0.6957887 -17.67658 3.296806 0.335717 -31.88609 13.80399 85.89643 18.53119 -6.850796 -0 0 31.80751 -21.84036 15.51925 15.12146 1.637959 -21.5908 -8.234467 -94.83919 8.560487 40.26382 0 0 -5.354625 7.586172 13.35033 5.049563
-991.2549 102.6819 2577.615 -6.972823 -5.047603 -69.30272 -2.002495 13.18588 -0.03268666 -0 50.24977 -0 -12.73984 14.7918 2.877863 -5.929018 -8.696231 -12.30948 -0 19.08477 -0 -1.89054 -10.24687 20.97842 0.6630458 -2.589632 8.450208 0.2756853 16.31109 -5.316609 0.4102755 18.8734 2.157187 0.6771325 -17.68396 3.302111 0.3114004 -31.90073 13.79656 85.92227 18.55259 -6.839591 -0 0 31.81291 -21.82032 15.50303 15.13083 1.618959 -21.57163 -8.224541 -94.81417 8.561678 40.28018 0 0 -5.401496 7.557288 13.34158 5.09135
-996.3274 104.1523 2580.348 -7.741508 -4.669081 -68.36711 -1.031178 5.838201 -0.2920744 -0 55.55297 -0 -13.51499 16.04423 2.326666 -5.645517 -3.841593 -11.99376 -0 18.43209 -0 -0.6140529 -11.16318 20.66008 0.6637123 -2.584134 8.4523 0.2741281 16.30123 -5.316319 0.4140634 18.86734 2.145355 0.6564045 -17.6919 3.308169 0.2868958 -31.91744 13.7893 85.94796 18.57334 -6.825498 -0 0 31.82179 -21.80059 15.48901 15.14382 1.598969 -21.55042 -8.213611 -94.7879 8.563429 40.29841 0 0 -5.45128 7.525713 13.33303 5.137399
-1000.905 105.3138 2582.854 -8.389898 -4.167013 -67.5485 -0.0846358 -1.567935 -0.8448771 -0 54.78517 -0 -13.69005 13.84767 1.251917 -5.097075 0.6934031 -11.58685 -0 16.63088 -0 0.3685148 -12.46906 20.04387 0.6641758 -2.579189 8.454298 0.2724454 16.29227 -5.315483 0.4182641 18.86025 2.132752 0.634758 -17.69962 3.31443 0.2641146 -31.93579 13.78285 85.9712 18.59248 -6.808248 -0 0 31.83491 -21.78194 15.47787 15.16012 1.578886 -21.52796 -8.202372 -94.76196 8.565325 40.31858 0 0 -5.50073 7.492885 13.32494 5.185665
-1005.201 105.8771 2585.203 -8.512829 -3.786846 -66.92956 0.4221236 -8.007645 -1.899394 -0 48.26585 -0 -13.47677 10.27776 0.293958 -4.673117 4.49296 -11.20329 -0 14.40714 -0 0.7472237 -14.39551 19.03527 0.6640898 -2.574897 8.456318 0.2707799 16.28452 -5.313961 0.42234 18.85232 2.120186 0.6136919 -17.70607 3.320116 0.2453208 -31.95524 13.77791 85.98927 18.60919 -6.787497 -0 0 31.85313 -21.76498 15.46995 15.17908 1.559689 -21.50518 -8.191735 -94.73822 8.566706 40.34099 0 0 -5.545829 7.460542 13.31739 5.233645
-1009.447 105.7419 2587.459 -7.994944 -3.592256 -66.48809 0.4671867 -13.15568 -3.408181 -0 38.22843 -0 -12.8885 6.990757 -0.2606117 -4.554118 7.56409 -10.82293 -0 12.41254 -0 0.5312374 -16.71213 17.67607 0.6631937 -2.571342 8.458437 0.2692829 16.27828 -5.311715 0.4257599 18.84393 2.108556 0.5947956 -17.71032 3.324499 0.2324397 -31.97495 13.77506 85.99994 18.6227 -6.763549 -0 0 31.87648 -21.75035 15.46537 15.19957 1.542443 -21.48327 -8.182609 -94.7185 8.567005 40.3654 0 0 -5.582744 7.430649 13.31056 5.278448
-1013.823 104.9775 2589.684 -6.987607 -3.526333 -66.16001 0.2775442 -17.13782 -5.063624 -0 27.29417 -0 -11.96868 4.844617 -0.4068472 -4.739703 10.05847 -10.39599 -0 11.16688 -0 0.1022081 -18.90701 16.2464 0.661445 -2.568659 8.460603 0.2680803 16.27383 -5.308863 0.4281645 18.83563 2.098712 0.5794718 -17.71188 3.327126 0.2265666 -31.99368 13.77459 86.00214 18.63232 -6.73771 -0 0 31.90373 -21.73877 15.46414 15.22013 1.528238 -21.46362 -8.175718 -94.70424 8.565995 40.39059 0 0 -5.60863 7.405209 13.30473 5.317063
-1018.45 103.763 2591.937 -5.783518 -3.486519 -65.89057 0.1540863 -20.23073 -6.493241 -0 17.52014 -0 -10.91934 4.025006 -0.2769588 -5.112897 12.11579 -9.866349 -0 11.10547 -0 -0.03828684 -20.46772 15.10206 0.6590127 -2.567019 8.462652 0.2672545 16.27146 -5.305648 0.4294114 18.82804 2.091332 0.5687415 -17.71075 3.327869 0.2278664 -32.01007 13.77642 85.99605 18.63745 -6.712023 -0 0 31.93267 -21.73101 15.46622 15.23919 1.518032 -21.44765 -8.171498 -94.69629 8.563805 40.41462 0 0 -5.621966 7.385972 13.30031 5.346808
-1023.411 102.3346 2594.261 -4.70085 -3.388041 -65.65825 0.3466239 -22.60918 -7.430902 -0 10.11427 -0 -10.01137 4.283383 -0.03475127 -5.514938 13.80878 -9.193482 -0 12.611 -0 0.3818748 -21.04775 14.44593 0.6561895 -2.566563 8.464375 0.2668435 16.27131 -5.302369 0.4295322 18.82174 2.086849 0.5631619 -17.70728 3.326857 0.2357457 -32.02286 13.78027 85.98277 18.63774 -6.688728 -0 0 31.96067 -21.72765 15.47146 15.25533 1.512493 -21.4365 -8.170097 -94.69495 8.560791 40.43537 0 0 -5.622511 7.374173 13.29769 5.365741
-1028.767 100.9514 2596.684 -4.016783 -3.192921 -65.48 1.008971 -24.23079 -7.75369 -0 5.593779 -0 -9.477707 5.164908 0.1907186 -5.792692 15.10992 -8.37393 -0 16.01913 -0 1.255767 -20.47518 14.23632 0.6532965 -2.567361 8.465584 0.2668468 16.27343 -5.299314 0.4286653 18.81719 2.085441 0.5628502 -17.702 3.324368 0.2491408 -32.03113 13.78569 85.96392 18.63319 -6.669782 -0 0 31.98536 -21.72896 15.47954 15.26748 1.511915 -21.43091 -8.171428 -94.69997 8.557384 40.45105 0 0 -5.611022 7.370417 13.29712 5.372842
-1034.534 99.87074 2599.205 -3.930276 -2.91154 -65.40867 2.18208 -24.84441 -7.448774 -0 3.996287 -0 -9.459407 6.155171 0.31562 -5.815742 15.84883 -7.454316 -0 21.56208 -0 2.17022 -18.73223 14.25695 0.6506157 -2.569406 8.466144 0.2672357 16.27771 -5.296709 0.4269977 18.81466 2.087065 0.5675756 -17.69549 3.320737 0.2668094 -32.03436 13.79222 85.94119 18.62406 -6.656586 -0 0 32.00489 -21.73493 15.49008 15.275 1.516256 -21.43116 -8.17524 -94.71078 8.553988 40.46041 0 0 -5.588882 7.374731 13.29872 5.367972
-1040.659 99.31383 2601.792 -4.511123 -2.594474 -65.52258 3.757493 -24.08377 -6.587036 -0 4.923113 -0 -9.971111 6.772901 0.2756616 -5.492205 15.6826 -6.532733 -0 29.19865 -0 2.621887 -15.97699 14.28008 0.6483602 -2.572634 8.465977 0.2679637 16.28396 -5.294708 0.4247291 18.81424 2.091515 0.5768708 -17.68828 3.316298 0.2875402 -32.03244 13.79942 85.91613 18.6108 -6.649926 -0 0 32.0181 -21.74529 15.50267 15.27765 1.525216 -21.43714 -8.181192 -94.7266 8.550932 40.46282 0 0 -5.557775 7.386693 13.30244 5.351679
-1046.984 99.41011 2604.376 -5.627089 -2.321306 -65.89863 5.444773 -21.65121 -5.303481 -0 7.469987 -0 -10.86364 6.661974 -0.0003035219 -4.809005 14.14768 -5.730923 -0 38.33632 -0 2.329498 -12.57305 14.22926 0.6466752 -2.576944 8.465053 0.2689725 16.29195 -5.293393 0.4220579 18.81589 2.098471 0.5901192 -17.68082 3.311365 0.3102434 -32.02555 13.80693 85.89007 18.59397 -6.650052 -0 0 32.02446 -21.75965 15.51691 15.27557 1.538324 -21.44846 -8.188901 -94.74654 8.548466 40.45812 0 0 -5.519496 7.405566 13.30818 5.325003
-1053.263 100.1363 2606.866 -6.917859 -2.186623 -66.56533 6.822178 -17.57254 -3.763112 -0 10.29235 -0 -11.8272 5.680307 -0.5741439 -3.880863 10.8847 -5.130439 -0 47.60523 -0 1.515194 -9.067277 14.21597 0.6456523 -2.582207 8.463378 0.2701964 16.30141 -5.292792 0.4191789 18.81947 2.10753 0.6065969 -17.67348 3.306228 0.3339288 -32.01409 13.81444 85.86412 18.57416 -6.656808 -0 0 32.02388 -21.7775 15.53246 15.26913 1.554987 -21.46453 -8.197948 -94.76968 8.546776 40.44655 0 0 -5.475911 7.430385 13.31576 5.289346
-1059.26 101.2974 2609.192 -7.943524 -2.276169 -67.4643 7.521728 -12.35964 -2.153179 -0 12.06788 -0 -12.51252 3.92537 -1.416764 -2.921805 6.01119 -4.722398 -0 55.02632 -0 0.8377963 -6.076217 14.3926 0.645345 -2.588257 8.460992 0.271563 16.31202 -5.292901 0.4162836 18.82475 2.118216 0.6254732 -17.66662 3.301169 0.3576164 -31.99866 13.82164 85.83934 18.55212 -6.669739 -0 0 32.01661 -21.79818 15.54891 15.25888 1.574476 -21.48455 -8.207881 -94.79496 8.546002 40.42864 0 0 -5.429041 7.459965 13.3249 5.246441
